<svg width="360" height="800" viewBox="0 0 360 800" fill="none" xmlns="http://www.w3.org/2000/svg">
<g clip-path="url(#clip0_358_91)">
<rect width="360" height="800" fill="#0057A6"/>
<path d="M61 34.0001C28.5 53.0001 49.8544 116 6.50005 116C-36.8543 116 -8.47754 87.5407 -8.47754 47.5C-8.47754 7.45939 -14.8543 -2.49991 28.5 -2.49991C71.8544 -2.49991 148.5 -17.1537 61 34.0001Z" fill="#0062AA"/>
<path d="M162.938 505.074C260.963 459.642 196.555 309 327.317 309C458.08 309 372.492 377.051 372.492 472.794C372.492 568.537 391.725 592.351 260.963 592.351C130.2 592.351 -100.973 627.391 162.938 505.074Z" fill="#0062AA"/>
<path d="M105.783 -5.06368C151 39.5 -23.5 86.5 -1.63289 104.398" stroke="#3BACD8" stroke-opacity="0.65"/>
<path d="M-13.1405 594.476C169.044 460.386 105.154 923.637 182.596 859.695" stroke="#3BACD8" stroke-opacity="0.65"/>
<path d="M189.148 593.586C189.148 593.586 322.538 413.899 311.038 469.399C299.538 524.9 203.538 444.399 278.038 455.399C352.538 466.399 314.038 321.399 388.148 345.586" stroke="#0057A6"/>
<path d="M158.241 78.0363L158.24 77.5645C158.603 77.5481 158.869 77.5156 159.038 77.4671C159.216 77.4186 159.333 77.3217 159.389 77.1765C159.445 77.0313 159.473 76.8136 159.473 76.5232L159.469 70.9829C159.469 70.6926 159.44 70.4789 159.384 70.3419C159.327 70.1967 159.21 70.096 159.033 70.0397C158.863 69.9834 158.597 69.9513 158.234 69.9436L158.234 69.4718C158.484 69.4797 158.79 69.4875 159.153 69.4953C159.524 69.495 159.976 69.4946 160.508 69.4942C160.734 69.494 160.968 69.4938 161.21 69.4937C161.452 69.4854 161.677 69.4812 161.887 69.481C162.097 69.4728 162.27 69.4686 162.407 69.4685C164.101 69.4672 165.379 69.813 166.243 70.5059C167.114 71.1987 167.55 72.2145 167.552 73.5532C167.552 74.4887 167.347 75.2913 166.936 75.961C166.526 76.6226 165.933 77.1351 165.159 77.4986C164.394 77.8541 163.474 78.0322 162.402 78.033C162.192 78.0332 161.938 78.0294 161.64 78.0215C161.341 78.0056 160.97 77.9979 160.527 77.9982C160.027 77.9986 159.571 78.003 159.16 78.0114C158.749 78.0198 158.442 78.0281 158.241 78.0363ZM162.51 77.5733C163.502 77.5725 164.228 77.2655 164.687 76.6522C165.154 76.0309 165.387 75.0589 165.386 73.7364C165.385 72.4057 165.155 71.4382 164.695 70.8337C164.234 70.2292 163.496 69.9274 162.48 69.9281L161.549 69.9289L161.554 76.5458C161.554 76.8281 161.578 77.0458 161.627 77.199C161.684 77.3441 161.78 77.4448 161.918 77.5012C162.055 77.5494 162.252 77.5735 162.51 77.5733ZM168.513 78.0283L168.513 77.5565C168.908 77.5481 169.182 77.4834 169.335 77.3623C169.496 77.2412 169.577 77.0154 169.576 76.6847L169.574 73.2976C169.573 72.9347 169.497 72.6727 169.343 72.5115C169.198 72.3423 168.92 72.2497 168.508 72.2339L168.508 71.7622C168.677 71.7701 168.843 71.778 169.004 71.786C169.173 71.7939 169.343 71.7978 169.512 71.7977C169.883 71.7974 170.23 71.785 170.552 71.7606C170.875 71.7281 171.173 71.6835 171.447 71.6268L171.451 76.6832C171.452 77.022 171.532 77.2517 171.694 77.3726C171.855 77.4854 172.129 77.5456 172.517 77.5534L172.517 78.0252C172.396 78.0172 172.227 78.0133 172.009 78.0135C171.799 78.0056 171.565 77.9977 171.307 77.9898C171.057 77.9819 170.803 77.9781 170.545 77.9783C170.166 77.9786 169.783 77.987 169.396 78.0034C169.009 78.0118 168.715 78.0201 168.513 78.0283ZM170.455 70.5993C170.172 70.5996 169.918 70.5111 169.692 70.3338C169.475 70.1566 169.365 69.9107 169.365 69.5962C169.365 69.2736 169.474 69.0235 169.691 68.8459C169.917 68.6683 170.171 68.5794 170.453 68.5792C170.735 68.579 170.99 68.6675 171.215 68.8447C171.441 69.022 171.554 69.2678 171.555 69.5824C171.555 69.9049 171.442 70.155 171.217 70.3326C170.991 70.5102 170.737 70.5991 170.455 70.5993ZM175.713 80.9138C174.834 80.9145 174.152 80.7779 173.668 80.5041C173.192 80.2303 172.954 79.8756 172.954 79.4401C172.954 79.0853 173.103 78.7707 173.401 78.4962C173.699 78.2299 174.126 78.0078 174.682 77.8299L174.985 77.9748C174.808 78.104 174.667 78.2694 174.562 78.4711C174.465 78.6809 174.417 78.9067 174.417 79.1487C174.418 79.568 174.555 79.8905 174.829 80.1161C175.112 80.3417 175.511 80.4543 176.027 80.4539C176.422 80.4536 176.769 80.3888 177.067 80.2595C177.374 80.1302 177.612 79.9526 177.781 79.7267C177.958 79.5088 178.046 79.2547 178.046 78.9644C178.046 78.6902 177.953 78.4806 177.767 78.3356C177.59 78.1986 177.32 78.1303 176.957 78.1306L175.65 78.1316C175.118 78.132 174.695 78.0275 174.38 77.8181C174.065 77.6086 173.908 77.3225 173.908 76.9596C173.907 76.6692 174.008 76.399 174.209 76.1488C174.419 75.8987 174.737 75.6565 175.164 75.4223L175.564 75.4704C175.427 75.5753 175.326 75.6762 175.261 75.773C175.205 75.8698 175.177 75.9707 175.177 76.0755C175.177 76.2368 175.25 76.3617 175.395 76.4503C175.54 76.5309 175.746 76.571 176.012 76.5708L177.319 76.5698C178.06 76.5692 178.621 76.718 179 77.0161C179.38 77.3061 179.569 77.7293 179.57 78.2858C179.57 78.81 179.409 79.2698 179.087 79.6652C178.765 80.0606 178.313 80.3674 177.733 80.5856C177.161 80.8038 176.487 80.9132 175.713 80.9138ZM175.999 75.5426C175.193 75.5432 174.56 75.3703 174.1 75.0239C173.64 74.6694 173.409 74.1817 173.409 73.5608C173.408 72.9478 173.638 72.4678 174.097 72.1207C174.557 71.7655 175.19 71.5876 175.996 71.587C176.786 71.5863 177.408 71.7592 177.859 72.1057C178.311 72.4521 178.537 72.9358 178.538 73.5568C178.538 74.1858 178.313 74.6739 177.862 75.021C177.41 75.3681 176.79 75.542 175.999 75.5426ZM176.011 75.0829C176.293 75.0827 176.511 74.9575 176.664 74.7074C176.817 74.4573 176.893 74.0742 176.893 73.558C176.892 73.0419 176.815 72.6629 176.662 72.4211C176.517 72.1712 176.299 72.0464 176.009 72.0466C175.726 72.0468 175.509 72.172 175.356 72.4221C175.211 72.6642 175.138 73.0433 175.139 73.5594C175.139 74.0755 175.212 74.4585 175.357 74.7084C175.503 74.9583 175.721 75.0831 176.011 75.0829ZM179.602 73.2656C179.433 73.2657 179.308 73.2134 179.227 73.1086C179.146 72.9958 179.082 72.8749 179.033 72.7459C178.993 72.6088 178.948 72.4879 178.9 72.3831C178.851 72.2783 178.775 72.2259 178.67 72.226C178.622 72.226 178.553 72.2543 178.464 72.3108C178.376 72.3593 178.287 72.4319 178.198 72.5288C178.11 72.6256 178.025 72.7467 177.945 72.8919L177.727 72.505C177.904 72.2306 178.129 72.0087 178.404 71.8391C178.686 71.6695 178.98 71.5846 179.286 71.5844C179.561 71.5842 179.778 71.6606 179.94 71.8137C180.109 71.9668 180.194 72.1845 180.194 72.4667C180.195 72.7006 180.138 72.8942 180.025 73.0475C179.921 73.1928 179.78 73.2655 179.602 73.2656ZM180.686 78.0188L180.685 77.547C181.081 77.5386 181.355 77.4739 181.508 77.3528C181.669 77.2317 181.75 77.0059 181.749 76.6752L181.747 73.2881C181.746 72.9252 181.67 72.6632 181.516 72.502C181.371 72.3328 181.093 72.2402 180.681 72.2244L180.681 71.7527C180.85 71.7606 181.016 71.7685 181.177 71.7765C181.346 71.7844 181.516 71.7883 181.685 71.7882C182.056 71.7879 182.403 71.7755 182.725 71.7511C183.048 71.7186 183.346 71.674 183.62 71.6173L183.624 76.6738C183.625 77.0125 183.705 77.2422 183.867 77.3631C184.028 77.4759 184.302 77.5361 184.689 77.5439L184.69 78.0157C184.569 78.0077 184.399 78.0038 184.182 78.004C183.972 77.9961 183.738 77.9882 183.48 77.9803C183.23 77.9724 182.976 77.9686 182.718 77.9688C182.339 77.9691 181.956 77.9775 181.569 77.9939C181.182 78.0023 180.887 78.0106 180.686 78.0188ZM182.628 70.5898C182.345 70.5901 182.091 70.5016 181.865 70.3243C181.647 70.1471 181.538 69.9012 181.538 69.5867C181.538 69.2641 181.647 69.014 181.864 68.8364C182.09 68.6588 182.344 68.5699 182.626 68.5697C182.908 68.5695 183.162 68.658 183.388 68.8352C183.614 69.0125 183.727 69.2583 183.728 69.5729C183.728 69.8954 183.615 70.1455 183.389 70.3231C183.164 70.5007 182.91 70.5896 182.628 70.5898ZM188.174 78.1823C187.537 78.1828 187.053 78.0098 186.722 77.6633C186.399 77.3087 186.238 76.7886 186.237 76.1032L186.234 72.2201L184.976 72.2211L184.976 71.7493L186.234 71.7483L186.232 70.0306C186.595 70.0303 186.93 70.0099 187.236 69.9693C187.543 69.9207 187.833 69.8559 188.107 69.7751L188.109 71.7469L189.814 71.7455L189.815 72.2173L188.109 72.2186L188.112 76.5251C188.113 76.7993 188.169 77.0049 188.282 77.1419C188.403 77.2708 188.577 77.3352 188.802 77.335C189.012 77.3349 189.19 77.2702 189.335 77.1411C189.488 77.0119 189.621 76.8142 189.733 76.548L190.096 76.7292C189.919 77.2374 189.678 77.6085 189.371 77.8427C189.073 78.0687 188.674 78.1819 188.174 78.1823ZM192.475 78.1789C191.951 78.1794 191.535 78.0426 191.228 77.7686C190.922 77.4947 190.768 77.1198 190.768 76.644C190.768 76.2811 190.852 75.9867 191.021 75.7607C191.19 75.5267 191.408 75.337 191.674 75.1917C191.948 75.0463 192.234 74.9251 192.533 74.8281C192.839 74.7311 193.125 74.6381 193.391 74.5492C193.665 74.4603 193.887 74.3553 194.056 74.2342C194.226 74.1131 194.31 73.9517 194.31 73.7501L194.309 73.1694C194.309 72.8146 194.216 72.5445 194.031 72.3592C193.853 72.1658 193.591 72.0692 193.244 72.0695C192.986 72.0697 192.776 72.1061 192.615 72.1788C192.462 72.2515 192.385 72.3524 192.386 72.4814C192.386 72.5863 192.418 72.6911 192.483 72.7959C192.555 72.8926 192.624 72.9974 192.688 73.1102C192.753 73.2231 192.785 73.3481 192.786 73.4852C192.786 73.6706 192.709 73.8199 192.556 73.9329C192.403 74.0459 192.197 74.1025 191.939 74.1027C191.657 74.103 191.431 74.0225 191.262 73.8613C191.1 73.7002 191.019 73.4825 191.019 73.2083C191.019 72.8777 191.136 72.5913 191.369 72.3492C191.603 72.107 191.929 71.9173 192.349 71.7798C192.768 71.6424 193.256 71.5735 193.812 71.5731C194.377 71.5726 194.833 71.6489 195.179 71.8018C195.534 71.9467 195.789 72.1885 195.942 72.527C196.104 72.8656 196.185 73.3212 196.185 73.8938L196.187 76.9906C196.188 77.168 196.216 77.297 196.272 77.3776C196.329 77.4501 196.418 77.4864 196.539 77.4863C196.635 77.4862 196.732 77.4659 196.829 77.4255C196.934 77.3851 197.039 77.3286 197.143 77.2559L197.337 77.6429C197.12 77.8205 196.87 77.9537 196.587 78.0427C196.313 78.1316 196.003 78.1762 195.656 78.1765C194.793 78.1771 194.353 77.8549 194.337 77.2097C194.111 77.5325 193.841 77.7747 193.527 77.9362C193.221 78.0977 192.87 78.1786 192.475 78.1789ZM193.393 77.2226C193.571 77.2224 193.74 77.182 193.901 77.1012C194.063 77.0204 194.2 76.8953 194.312 76.7259L194.31 74.4275C194.254 74.5566 194.157 74.6696 194.02 74.7664C193.891 74.8553 193.746 74.9441 193.585 75.0329C193.424 75.1218 193.267 75.2227 193.114 75.3357C192.969 75.4487 192.844 75.5859 192.739 75.7473C192.642 75.9087 192.594 76.1063 192.594 76.3401C192.594 76.6224 192.663 76.8401 192.8 76.9932C192.946 77.1463 193.143 77.2228 193.393 77.2226ZM197.717 78.0055L197.717 77.5337C198.104 77.5254 198.374 77.4606 198.527 77.3395C198.689 77.2185 198.769 76.9926 198.769 76.6619L198.764 70.2144C198.764 69.8515 198.687 69.5854 198.533 69.4162C198.388 69.2469 198.114 69.1584 197.711 69.1507L197.71 68.6668C197.871 68.6747 198.037 68.6827 198.206 68.6906C198.376 68.6985 198.541 68.7024 198.702 68.7023C199.065 68.702 199.408 68.6897 199.73 68.6652C200.061 68.6327 200.363 68.5881 200.638 68.5314L200.644 76.6605C200.644 76.9992 200.725 77.229 200.886 77.3498C201.048 77.4626 201.322 77.5228 201.709 77.5306L201.709 78.0024C201.588 77.9944 201.419 77.9905 201.201 77.9907C200.992 77.9828 200.758 77.9749 200.5 77.967C200.25 77.9592 199.996 77.9553 199.738 77.9555C199.367 77.9558 198.984 77.9642 198.588 77.9806C198.201 77.989 197.911 77.9973 197.717 78.0055Z" fill="#0057A6"/>
<path d="M168.131 88.0853L165.878 83.3612C165.754 83.1033 165.619 82.9206 165.474 82.8132C165.334 82.7057 165.146 82.6467 164.909 82.6362L164.909 82.3217C165.086 82.3269 165.31 82.3321 165.578 82.3373C165.847 82.3424 166.156 82.3449 166.506 82.3446C166.888 82.3443 167.216 82.3414 167.49 82.3358C167.769 82.3302 167.982 82.3246 168.127 82.3191L168.127 82.6337C167.869 82.6392 167.673 82.669 167.538 82.7228C167.404 82.7713 167.329 82.8493 167.313 82.9569C167.302 83.0644 167.337 83.2069 167.418 83.3842L168.937 86.5846L168.719 86.6655L169.822 84.1323C169.967 83.8043 170.042 83.5327 170.047 83.3176C170.052 83.0972 169.982 82.9306 169.837 82.8178C169.692 82.6996 169.471 82.638 169.175 82.6328L169.175 82.3183C169.379 82.3235 169.557 82.3288 169.707 82.334C169.863 82.3339 170.006 82.3365 170.135 82.3418C170.264 82.3417 170.393 82.3416 170.522 82.3415C170.71 82.3413 170.882 82.3385 171.038 82.333C171.194 82.3275 171.345 82.322 171.49 82.3165L171.49 82.631C171.313 82.6581 171.157 82.7146 171.022 82.8008C170.888 82.8815 170.764 83.0026 170.652 83.164C170.544 83.3253 170.432 83.5405 170.313 83.8094L168.422 88.085L168.131 88.0853ZM171.533 88.0262L171.533 87.7117C171.796 87.7061 171.979 87.6629 172.081 87.5822C172.189 87.5015 172.242 87.3509 172.242 87.1305L172.24 84.8724C172.24 84.6305 172.189 84.4558 172.087 84.3483C171.99 84.2355 171.804 84.1738 171.53 84.1633L171.53 83.8488C171.643 83.854 171.753 83.8593 171.861 83.8646C171.974 83.8699 172.086 83.8725 172.199 83.8724C172.447 83.8722 172.678 83.864 172.893 83.8477C173.108 83.826 173.307 83.7963 173.49 83.7585L173.492 87.1295C173.492 87.3553 173.546 87.5085 173.654 87.589C173.761 87.6642 173.944 87.7044 174.202 87.7096L174.203 88.0241C174.122 88.0188 174.009 88.0162 173.864 88.0163C173.724 88.011 173.568 88.0058 173.396 88.0005C173.229 87.9953 173.06 87.9927 172.888 87.9929C172.635 87.9931 172.38 87.9986 172.122 88.0096C171.864 88.0152 171.668 88.0207 171.533 88.0262ZM172.828 83.0735C172.64 83.0737 172.47 83.0147 172.32 82.8965C172.174 82.7784 172.102 82.6144 172.101 82.4048C172.101 82.1897 172.174 82.023 172.319 81.9046C172.469 81.7862 172.639 81.7269 172.827 81.7268C173.015 81.7266 173.184 81.7856 173.335 81.9038C173.486 82.022 173.561 82.1859 173.561 82.3956C173.561 82.6106 173.486 82.7773 173.336 82.8957C173.185 83.0141 173.016 83.0734 172.828 83.0735ZM174.558 88.0238L174.557 87.7093C174.815 87.7037 174.996 87.6606 175.098 87.5798C175.205 87.4991 175.259 87.3485 175.259 87.1281L175.255 82.8297C175.255 82.5878 175.204 82.4104 175.102 82.2976C175.005 82.1847 174.822 82.1258 174.553 82.1206L174.553 81.798C174.66 81.8033 174.771 81.8086 174.883 81.8139C174.996 81.8192 175.107 81.8218 175.214 81.8217C175.456 81.8215 175.685 81.8133 175.9 81.797C176.12 81.7753 176.322 81.7455 176.504 81.7078L176.509 87.1271C176.509 87.3529 176.563 87.5061 176.67 87.5867C176.778 87.6619 176.961 87.702 177.219 87.7072L177.219 88.0217C177.138 88.0164 177.025 88.0138 176.88 88.0139C176.74 88.0087 176.585 88.0034 176.412 87.9982C176.246 87.9929 176.076 87.9904 175.904 87.9905C175.657 87.9907 175.402 87.9963 175.138 88.0072C174.88 88.0128 174.687 88.0183 174.558 88.0238ZM177.595 88.0214L177.595 87.7069C177.853 87.7013 178.033 87.6582 178.135 87.5775C178.242 87.4967 178.296 87.3462 178.296 87.1257L178.292 82.8273C178.292 82.5854 178.241 82.408 178.139 82.2952C178.042 82.1824 177.859 82.1234 177.59 82.1182L177.59 81.7956C177.697 81.8009 177.808 81.8062 177.921 81.8115C178.033 81.8168 178.144 81.8194 178.251 81.8193C178.493 81.8191 178.722 81.8109 178.937 81.7946C179.157 81.7729 179.359 81.7432 179.541 81.7054L179.546 87.1248C179.546 87.3506 179.6 87.5037 179.707 87.5843C179.815 87.6595 179.998 87.6997 180.256 87.7048L180.256 88.0194C180.175 88.0141 180.062 88.0115 179.917 88.0116C179.778 88.0063 179.622 88.001 179.45 87.9958C179.283 87.9906 179.114 87.988 178.942 87.9881C178.694 87.9883 178.439 87.9939 178.175 88.0049C177.917 88.0104 177.724 88.016 177.595 88.0214ZM181.912 88.131C181.563 88.1312 181.286 88.0401 181.081 87.8574C180.877 87.6748 180.774 87.4249 180.774 87.1077C180.774 86.8657 180.83 86.6695 180.943 86.5188C181.056 86.3628 181.201 86.2364 181.378 86.1395C181.561 86.0425 181.752 85.9617 181.951 85.8971C182.155 85.8324 182.346 85.7704 182.523 85.7111C182.706 85.6519 182.854 85.5819 182.966 85.5011C183.079 85.4204 183.136 85.3128 183.136 85.1784L183.135 84.7913C183.135 84.5548 183.073 84.3747 182.949 84.2511C182.831 84.1222 182.656 84.0578 182.425 84.058C182.253 84.0581 182.113 84.0824 182.006 84.1309C181.904 84.1794 181.853 84.2466 181.853 84.3326C181.853 84.4025 181.874 84.4724 181.917 84.5423C181.966 84.6067 182.012 84.6766 182.055 84.7518C182.098 84.8271 182.119 84.9104 182.119 85.0018C182.119 85.1254 182.068 85.2249 181.966 85.3003C181.864 85.3756 181.727 85.4134 181.555 85.4135C181.367 85.4137 181.216 85.36 181.103 85.2526C180.996 85.1451 180.942 85 180.942 84.8172C180.942 84.5968 181.019 84.4059 181.175 84.2445C181.331 84.083 181.549 83.9565 181.828 83.8649C182.108 83.7733 182.433 83.7273 182.804 83.7271C183.18 83.7268 183.484 83.7776 183.715 83.8796C183.952 83.9762 184.121 84.1373 184.224 84.363C184.331 84.5888 184.385 84.8925 184.386 85.2742L184.387 87.3387C184.387 87.457 184.406 87.543 184.444 87.5967C184.482 87.6451 184.541 87.6692 184.621 87.6692C184.686 87.6691 184.75 87.6556 184.815 87.6287C184.885 87.6018 184.955 87.5641 185.024 87.5156L185.154 87.7736C185.009 87.892 184.842 87.9808 184.654 88.0401C184.471 88.0994 184.264 88.1291 184.033 88.1293C183.458 88.1298 183.165 87.9149 183.154 87.4848C183.003 87.7 182.823 87.8614 182.614 87.9691C182.409 88.0768 182.176 88.1308 181.912 88.131ZM182.524 87.4934C182.643 87.4933 182.756 87.4663 182.863 87.4125C182.971 87.3586 183.062 87.2752 183.137 87.1623L183.136 85.63C183.098 85.7161 183.034 85.7914 182.943 85.856C182.857 85.9152 182.76 85.9744 182.652 86.0336C182.545 86.0928 182.44 86.1601 182.338 86.2355C182.241 86.3108 182.158 86.4023 182.088 86.5099C182.024 86.6174 181.992 86.7492 181.992 86.9051C181.992 87.0933 182.038 87.2384 182.129 87.3405C182.226 87.4426 182.358 87.4935 182.524 87.4934ZM187.183 89.9414C186.597 89.9418 186.143 89.8508 185.82 89.6683C185.502 89.4857 185.344 89.2493 185.343 88.9589C185.343 88.7224 185.443 88.5126 185.641 88.3297C185.84 88.1521 186.125 88.004 186.496 87.8855L186.698 87.9821C186.579 88.0682 186.485 88.1785 186.416 88.3129C186.351 88.4528 186.319 88.6033 186.319 88.7646C186.319 89.0442 186.411 89.2592 186.594 89.4096C186.782 89.56 187.048 89.635 187.392 89.6348C187.656 89.6346 187.887 89.5914 188.086 89.5052C188.29 89.419 188.449 89.3006 188.561 89.15C188.68 89.0047 188.739 88.8353 188.738 88.6418C188.738 88.459 188.676 88.3192 188.553 88.2226C188.434 88.1313 188.254 88.0857 188.012 88.0859L187.141 88.0866C186.786 88.0869 186.504 88.0172 186.294 87.8776C186.084 87.7379 185.979 87.5472 185.979 87.3052C185.979 87.1117 186.046 86.9315 186.18 86.7647C186.32 86.598 186.532 86.4365 186.817 86.2804L187.083 86.3124C186.992 86.3824 186.925 86.4496 186.882 86.5142C186.844 86.5787 186.826 86.646 186.826 86.7159C186.826 86.8234 186.874 86.9067 186.971 86.9657C187.068 87.0194 187.205 87.0462 187.382 87.0461L188.253 87.0454C188.748 87.045 189.122 87.1442 189.374 87.3429C189.627 87.5362 189.754 87.8184 189.754 88.1894C189.754 88.5388 189.647 88.8454 189.432 89.109C189.217 89.3726 188.917 89.5771 188.53 89.7226C188.148 89.868 187.699 89.941 187.183 89.9414ZM187.374 86.3606C186.836 86.361 186.414 86.2457 186.107 86.0148C185.801 85.7785 185.647 85.4533 185.647 85.0394C185.647 84.6307 185.8 84.3107 186.106 84.0793C186.412 83.8425 186.834 83.7239 187.372 83.7235C187.899 83.7231 188.313 83.8383 188.614 84.0693C188.915 84.3002 189.066 84.6227 189.066 85.0367C189.067 85.456 188.916 85.7814 188.615 86.0128C188.314 86.2443 187.901 86.3602 187.374 86.3606ZM187.382 86.0541C187.57 86.054 187.715 85.9705 187.817 85.8038C187.919 85.637 187.97 85.3816 187.969 85.0375C187.969 84.6935 187.918 84.4408 187.816 84.2796C187.719 84.113 187.574 84.0298 187.38 84.0299C187.192 84.0301 187.047 84.1135 186.945 84.2803C186.848 84.4416 186.8 84.6944 186.8 85.0385C186.8 85.3825 186.849 85.6379 186.946 85.8045C187.043 85.9711 187.188 86.0543 187.382 86.0541ZM189.776 84.8426C189.663 84.8427 189.579 84.8078 189.526 84.7379C189.472 84.6627 189.429 84.5821 189.396 84.4961C189.369 84.4047 189.34 84.3241 189.308 84.2542C189.275 84.1844 189.224 84.1495 189.154 84.1495C189.122 84.1495 189.076 84.1684 189.017 84.2061C188.958 84.2384 188.899 84.2868 188.84 84.3514C188.781 84.4159 188.724 84.4966 188.671 84.5934L188.525 84.3355C188.643 84.1526 188.794 84.0046 188.977 83.8916C189.165 83.7785 189.361 83.7219 189.565 83.7218C189.748 83.7216 189.893 83.7726 190.001 83.8747C190.114 83.9767 190.17 84.1218 190.17 84.31C190.171 84.4659 190.133 84.595 190.058 84.6972C189.988 84.794 189.894 84.8425 189.776 84.8426ZM192.614 88.1226C192.205 88.1229 191.85 88.0372 191.549 87.8654C191.248 87.6882 191.014 87.4357 190.847 87.1079C190.685 86.78 190.604 86.3903 190.604 85.9387C190.603 85.4602 190.692 85.0569 190.869 84.7288C191.046 84.3954 191.293 84.1452 191.61 83.9782C191.933 83.806 192.306 83.7196 192.731 83.7193C193.118 83.719 193.444 83.7886 193.707 83.9282C193.971 84.0678 194.17 84.2827 194.304 84.5729C194.439 84.8631 194.501 85.2367 194.491 85.6937L191.515 85.6961L191.499 85.3896L193.402 85.3881C193.407 85.1247 193.385 84.8935 193.337 84.6946C193.288 84.4904 193.213 84.3318 193.111 84.219C193.008 84.1008 192.874 84.0418 192.707 84.0419C192.498 84.0421 192.318 84.1551 192.167 84.381C192.022 84.6016 191.936 84.9565 191.91 85.4458L191.926 85.478C191.921 85.5264 191.915 85.5775 191.91 85.6312C191.91 85.685 191.91 85.7495 191.91 85.8248C191.911 86.3517 192.008 86.7629 192.201 87.0584C192.401 87.3486 192.686 87.4935 193.057 87.4932C193.32 87.493 193.546 87.4284 193.734 87.2992C193.927 87.17 194.091 86.9709 194.225 86.702L194.516 86.855C194.35 87.2691 194.105 87.5838 193.783 87.7991C193.46 88.0144 193.071 88.1223 192.614 88.1226Z" fill="#0057A6"/>
<path d="M419.207 -2.00354C415.283 -5.81208 410.244 -12.4276 404.343 -13.2144C391.021 -14.9907 372.683 -8.19769 360.822 -2.8853C354.471 -0.0404391 349.525 5.06773 344.447 9.6482C331.248 21.553 316.061 32.3675 301.178 42.0212C285.259 52.3469 269.284 62.5 253.437 72.9455C229.549 88.6917 204.515 105.039 177.858 115.648C176.978 115.998 123.104 134.362 122.182 126.984C121.743 123.475 131.129 119.99 133.456 122.765C140.221 130.831 136.665 148.896 134.967 157.972C130.671 180.948 114.667 202.922 100.39 220.576C83.7997 241.091 63.7987 256.517 42.5722 271.844C13.7825 292.632 -15.1632 312.991 -44.9733 332.307C-83.0467 356.978 -120.39 383.914 -159.979 406.123C-171.915 412.818 -160.101 397.533 -157.838 393.652" stroke="#0062AA" stroke-width="2" stroke-linecap="round"/>
</g>
<defs>
<clipPath id="clip0_358_91">
<rect width="360" height="800" fill="white"/>
</clipPath>
</defs>
</svg>
